<?xml version="1.0" encoding="UTF-8" standalone="no"?>
<!DOCTYPE svg PUBLIC "-//W3C//DTD SVG 1.1//EN" "http://www.w3.org/Graphics/SVG/1.1/DTD/svg11.dtd">
<svg width="100%" height="100%" viewBox="0 0 16 16" version="1.1" xmlns="http://www.w3.org/2000/svg" xmlns:xlink="http://www.w3.org/1999/xlink" xml:space="preserve" xmlns:serif="http://www.serif.com/" style="fill-rule:evenodd;clip-rule:evenodd;stroke-linejoin:round;stroke-miterlimit:2;">
    <g transform="matrix(0.709344,0,0,0.709344,-3.3495,-3.24483)">
        <path d="M16.194,8.096C16.13,8.067 16.066,8.041 16,8.018L16,6C16.358,6 16.735,6.149 16.997,6.264C17.294,6.394 17.673,6.59 18.074,6.819C19.061,7.396 20.021,8.018 20.952,8.683C23.102,10.201 23.5,10.5 25.707,12.293C25.894,12.48 26,12.735 26,13C26,13.549 25.549,14 25,14C24.735,14 24.48,13.894 24.293,13.707C22,12 21.9,11.799 19.798,10.317C18.92,9.689 18.014,9.101 17.082,8.556C16.795,8.386 16.498,8.233 16.194,8.096ZM15.806,8.096C15.896,8.056 15.959,8.032 16,8.018L16,6C15.642,6 15.265,6.149 15.003,6.264C14.706,6.394 14.327,6.59 13.926,6.819C12.939,7.396 11.979,8.018 11.048,8.683C8.9,10.201 8.5,10.5 6.293,12.293C6.106,12.48 6,12.735 6,13C6,13.549 6.451,14 7,14C7.265,14 7.52,13.894 7.707,13.707C10.001,12 10.101,11.799 12.202,10.317C13.08,9.689 13.986,9.101 14.918,8.556C15.283,8.347 15.568,8.199 15.806,8.096ZM7,24C7,23.451 7.451,23 8,23L24,23C24.549,23 25,23.451 25,24C25,24.549 24.549,25 24,25L8,25C7.451,25 7,24.549 7,24Z"/>
        <path d="M16,22C15.451,22 15,21.549 15,21L15,14C15,13.451 15.451,13 16,13C16.549,13 17,13.451 17,14L17,21C17,21.549 16.549,22 16,22ZM21,22C20.451,22 20,21.549 20,21L20,14C20,13.451 20.451,13 21,13C21.549,13 22,13.451 22,14L22,21C22,21.549 21.549,22 21,22ZM11,22C10.451,22 10,21.549 10,21L10,14C10,13.451 10.451,13 11,13C11.549,13 12,13.451 12,14L12,21C12,21.549 11.549,22 11,22Z"/>
    </g>
</svg>
